<svg width="16" height="16" viewBox="0 0 16 16" fill="none" xmlns="http://www.w3.org/2000/svg">
<path d="M9.29289 4.70711L1.70711 12.2929C1.5745 12.4255 1.5 12.6054 1.5 12.7929C1.5 13.1834 1.81658 13.5 2.20711 13.5C2.39464 13.5 2.5745 13.4255 2.70711 13.2929L10.2929 5.70711C10.4255 5.5745 10.5 5.39464 10.5 5.20711C10.5 4.81658 10.1834 4.5 9.79289 4.5C9.60536 4.5 9.4255 4.5745 9.29289 4.70711Z" stroke="black"/>
<path d="M11.5 10.5V9M11.5 10.5H10M11.5 10.5H13M11.5 10.5V12" stroke="black"/>
<path d="M13.5 2.5V1M13.5 2.5H12M13.5 2.5V4M13.5 2.5H15" stroke="black"/>
<path d="M5 3.5V2M5 3.5H3.5M5 3.5V5M5 3.5H6.5" stroke="black"/>
</svg>
